<svg xmlns="http://www.w3.org/2000/svg" viewBox="0 0 1169.81 1254.49"><g data-name="Layer 2"><path d="M.17 1252.53v-29.84q0-376-.17-751.92C-.11 389.6 28.93 325.31 104.74 289c114.44-54.76 259.86 14.71 266.55 150.66 5.07 103.17 1.63 206.75 2.57 310.14.31 34.34 6.59 67.08 41.33 84.52 53.42 26.8 110.81-6.44 111.93-66.72 1.74-93.74.16-187.54 1.11-281.3.25-24.31 2.36-49.1 7.61-72.79 16.83-75.91 65-122.94 140.53-138.13 80-16.09 148.1 7.37 194.31 76.39 15.93 23.79 29.94 54.38 30.4 82.1 2.78 167.27 1.38 334.61 1.38 504H794.38V471.41c0-31.1-6.93-59.85-35.12-77.47-27.43-17.14-56.62-16.85-84.51-.47-26 15.26-34.76 40.56-34.86 69-.34 98.15 0 196.31-.18 294.46-.27 139.21-116.71 226.43-249.78 187.25C318.09 923 264.4 847.67 264 765.69c-.51-99.9.38-199.81-.32-299.71-.48-68-60-105.43-116.63-73.67-31.48 17.65-37.78 48.48-37.81 81.2q-.24 265.54-.06 531.08c0 38.56.57 77.13-.25 115.67-.36 16.78 5 22.85 22.51 22.8 202.39-.61 404.8 1.07 607.16-1.18 147.55-1.65 289.25-129.27 313.41-277.61a435.54 435.54 0 0 0 5.44-67.87c.53-115.67.27-231.35.24-347-.05-183.82-152.64-338.8-336.73-339.64-228.66-1-457.34-.3-686-.32H2.06V1.55C12.4 1 21.76.11 31.13.11Q370.19 0 709.26 0C859-.24 980.52 58.41 1073.56 175c59.65 74.72 92.24 161.17 93.67 256.65 2 134 5.44 268.39-1.84 402.06-10.86 199.24-147.7 358-341.46 405.88-38.67 9.55-79.54 13.86-119.44 14.09-224.29 1.33-448.58.69-672.87.62-9.47-.03-18.94-1.05-31.45-1.77Z" style="fill:#08aa4b" data-name="Layer 1"/></g></svg>